<svg width="16" height="16" viewBox="0 0 16 16" fill="none" xmlns="http://www.w3.org/2000/svg">
<path d="M3.5 6V10C3.5 10.1326 3.44732 10.2598 3.35355 10.3536C3.25979 10.4473 3.13261 10.5 3 10.5C2.86739 10.5 2.74021 10.4473 2.64645 10.3536C2.55268 10.2598 2.5 10.1326 2.5 10V6C2.5 5.86739 2.55268 5.74021 2.64645 5.64645C2.74021 5.55268 2.86739 5.5 3 5.5C3.13261 5.5 3.25979 5.55268 3.35355 5.64645C3.44732 5.74021 3.5 5.86739 3.5 6ZM5.5 1.5C5.36739 1.5 5.24021 1.55268 5.14645 1.64645C5.05268 1.74021 5 1.86739 5 2V14C5 14.1326 5.05268 14.2598 5.14645 14.3536C5.24021 14.4473 5.36739 14.5 5.5 14.5C5.63261 14.5 5.75979 14.4473 5.85355 14.3536C5.94732 14.2598 6 14.1326 6 14V2C6 1.86739 5.94732 1.74021 5.85355 1.64645C5.75979 1.55268 5.63261 1.5 5.5 1.5ZM8 3.5C7.86739 3.5 7.74021 3.55268 7.64645 3.64645C7.55268 3.74021 7.5 3.86739 7.5 4V12C7.5 12.1326 7.55268 12.2598 7.64645 12.3536C7.74021 12.4473 7.86739 12.5 8 12.5C8.13261 12.5 8.25979 12.4473 8.35355 12.3536C8.44732 12.2598 8.5 12.1326 8.5 12V4C8.5 3.86739 8.44732 3.74021 8.35355 3.64645C8.25979 3.55268 8.13261 3.5 8 3.5ZM10.5 5.5C10.3674 5.5 10.2402 5.55268 10.1464 5.64645C10.0527 5.74021 10 5.86739 10 6V10C10 10.1326 10.0527 10.2598 10.1464 10.3536C10.2402 10.4473 10.3674 10.5 10.5 10.5C10.6326 10.5 10.7598 10.4473 10.8536 10.3536C10.9473 10.2598 11 10.1326 11 10V6C11 5.86739 10.9473 5.74021 10.8536 5.64645C10.7598 5.55268 10.6326 5.5 10.5 5.5ZM13 4.5C12.8674 4.5 12.7402 4.55268 12.6464 4.64645C12.5527 4.74021 12.5 4.86739 12.5 5V11C12.5 11.1326 12.5527 11.2598 12.6464 11.3536C12.7402 11.4473 12.8674 11.5 13 11.5C13.1326 11.5 13.2598 11.4473 13.3536 11.3536C13.4473 11.2598 13.5 11.1326 13.5 11V5C13.5 4.86739 13.4473 4.74021 13.3536 4.64645C13.2598 4.55268 13.1326 4.5 13 4.5Z" fill="#3B64F6"/>
</svg>
