<svg width="26" height="10" viewBox="0 0 26 10" fill="none" xmlns="http://www.w3.org/2000/svg">
<path d="M2.92515 9.22617L0.873666 7.16557C0.682444 6.97505 0.532947 6.74652 0.434745 6.49461C0.336543 6.2427 0.291803 5.97297 0.303391 5.70268C0.314979 5.4324 0.382637 5.16753 0.502035 4.92503C0.621432 4.68253 0.789938 4.46776 0.996755 4.29446C3.32966 2.41051 6.06999 1.10248 8.99756 0.475469C11.6997 -0.129549 14.5014 -0.129549 17.2035 0.475469C20.1432 1.10655 22.8935 2.42429 25.2317 4.32193C25.4379 4.49471 25.606 4.70872 25.7253 4.95033C25.8446 5.19195 25.9126 5.45587 25.9248 5.7253C25.937 5.99474 25.8933 6.26377 25.7963 6.51529C25.6993 6.7668 25.5513 6.99528 25.3616 7.18617L23.3101 9.24678C22.9815 9.5834 22.5423 9.78852 22.0742 9.82391C21.6062 9.85929 21.1413 9.72253 20.7663 9.4391C20.0231 8.86664 19.2179 8.38045 18.366 7.98981C18.0293 7.83638 17.7433 7.58919 17.5421 7.27755C17.341 6.9659 17.2329 6.60285 17.2309 6.23143V4.48678C14.5454 3.74497 11.7104 3.74497 9.02491 4.48678V6.23143C9.02284 6.60285 8.91481 6.9659 8.71362 7.27754C8.51243 7.58919 8.22652 7.83638 7.88975 7.98981C7.03782 8.38045 6.23262 8.86664 5.48951 9.4391C5.11047 9.72569 4.63978 9.86235 4.16697 9.82309C3.69415 9.78383 3.2522 9.57139 2.92515 9.22617Z" fill="white"/>
</svg>
