<svg width="24" height="24" viewBox="0 0 24 24" fill="none" xmlns="http://www.w3.org/2000/svg">
<g clip-path="url(#clip0_1_2156)">
<path d="M9.40085 22.0126C8.04081 21.7777 6.74514 21.3641 5.57319 20.6256C3.78015 19.4958 2.63076 17.9186 2.19943 15.8459C2.18773 15.7913 2.17101 15.7376 2.15596 15.6838C2.08156 15.5829 2.05983 15.4663 2.04478 15.3464C1.98627 14.8633 1.93194 14.3803 1.9428 13.8924C1.9637 12.9602 1.91187 12.0273 1.98543 11.0944C2.07989 9.88767 2.38918 8.73887 2.86565 7.62976C2.91915 7.50488 2.98435 7.38495 3.02531 7.25593C3.6999 5.93923 4.55922 4.75734 5.67601 3.7723C7.11545 2.50274 8.77642 1.6707 10.6965 1.4019C13.4174 1.02145 15.8249 1.7683 17.9506 3.45553C19.2312 4.47117 20.2034 5.73329 20.9265 7.18728C20.9465 7.22202 20.9658 7.25675 20.9825 7.29232C21.5551 8.49405 21.9129 9.75203 22.0123 11.0803C22.0968 12.2109 22.0491 13.3432 22.0424 14.4738C22.0399 14.8683 21.9956 15.2694 21.9045 15.659C21.6253 17.2238 20.9189 18.5719 19.7671 19.6769C18.881 20.528 17.8294 21.1268 16.6691 21.5395C16.084 21.7479 15.4872 21.9133 14.8736 22.02C14.7624 22.039 14.6529 22.0705 14.5384 22.0481C14.3537 21.9803 14.1639 21.9605 13.9683 21.9605C12.645 21.9629 11.3218 21.9654 9.99853 21.9571C9.7954 21.9563 9.60398 22.0374 9.40169 22.0109L9.40085 22.0126Z" fill="#3B64F6"/>
<path d="M20.8749 7.21048C20.3106 6.09558 19.6018 5.08159 18.7031 4.20407C17.2152 2.75173 15.4615 1.78488 13.3817 1.47307C10.93 1.10502 8.6897 1.67818 6.66511 3.07677C5.1939 4.09324 4.07544 5.41821 3.24705 6.98799C3.20358 7.06987 3.19104 7.17574 3.08739 7.21709C3.06816 7.23198 3.0481 7.24521 3.02637 7.25596C2.94612 7.28243 2.86086 7.27085 2.77894 7.28408C2.37268 7.35521 1.98482 7.48837 1.60531 7.64386C1.56769 7.65958 1.52757 7.66537 1.48828 7.64634C1.6145 7.17326 1.84104 6.74152 2.07175 6.31393C3.34987 3.93858 5.16046 2.08841 7.65985 0.977654C10.8581 -0.444084 14.0329 -0.311753 17.1007 1.35232C19.6369 2.72774 21.3781 4.82685 22.4698 7.46521C22.494 7.52394 22.5082 7.58597 22.5275 7.64634C22.3461 7.71499 22.2056 7.58679 22.061 7.52973C21.7785 7.41807 21.4909 7.34033 21.195 7.28243C21.0847 7.27499 20.9685 7.2907 20.8749 7.21048Z" fill="#424242"/>
<path d="M1.48773 7.64711C1.83046 7.4941 2.16566 7.3229 2.55186 7.29643C2.61957 7.29147 2.68477 7.24764 2.75164 7.222C2.84443 7.24846 2.93805 7.25508 3.03 7.21869C3.04923 7.21869 3.06845 7.21869 3.08768 7.21869C3.09102 7.31794 3.05006 7.40313 3.0091 7.4908C2.36294 8.88689 2.02774 10.3549 2.02105 11.8892C2.01687 12.8701 1.98093 13.8518 2.06284 14.8319C2.08625 15.1172 2.12554 15.4009 2.15814 15.6854C0.836555 15.3629 0.0909176 14.4804 0.0257161 13.1306C-0.0302903 11.9644 -0.000197345 10.7991 0.169494 9.64201C0.286522 8.84306 0.678567 8.20539 1.36235 7.75215C1.40749 7.72238 1.44677 7.68268 1.48857 7.64711H1.48773Z" fill="#616161"/>
<path d="M21.2487 7.22266C21.6942 7.30867 22.1089 7.48318 22.5277 7.64777C22.5736 7.68995 22.6154 7.73958 22.6673 7.77431C23.4204 8.27304 23.7748 9.00252 23.8685 9.86515C23.988 10.961 24.0331 12.061 23.9738 13.1635C23.9345 13.8913 23.703 14.5365 23.1404 15.0377C23.0183 15.2651 22.791 15.3602 22.5795 15.4768C22.3429 15.5744 22.1264 15.7382 21.8464 15.6869C22.047 14.4835 21.9734 13.2702 21.9851 12.0594C22.0002 10.4491 21.6583 8.91319 20.9804 7.4501C20.9536 7.39221 20.9336 7.33183 20.9102 7.27311C21.0146 7.20033 21.1417 7.27807 21.2487 7.22431V7.22266Z" fill="#616161"/>
<path d="M9.40391 22.0124C9.54936 21.9165 9.70986 21.8867 9.88457 21.8867C11.2998 21.89 12.7158 21.89 14.131 21.8867C14.3057 21.8867 14.4654 21.9198 14.6083 22.019C14.9109 22.1547 14.87 22.4276 14.8808 22.6807C14.8733 22.8676 14.9318 23.062 14.8131 23.2357C14.8073 23.8221 14.625 23.9982 14.0249 23.9982C12.654 23.9982 11.2831 23.9982 9.91299 23.9982C9.40141 23.9982 9.19159 23.7923 9.19076 23.2911C9.19076 23.0521 9.19744 22.8122 9.18825 22.5732C9.17989 22.3524 9.24091 22.1646 9.40391 22.0124Z" fill="#424242"/>
<path d="M14.8133 23.2364C14.8133 23.0412 14.8133 22.8469 14.8133 22.6517C14.9253 22.5632 15.0591 22.5855 15.1853 22.5855C16.5646 22.5839 17.9438 22.5855 19.3231 22.5839C21.1028 22.5822 22.4904 21.2126 22.4929 19.4567C22.4946 18.2434 22.4929 17.0301 22.4929 15.8167C22.4929 15.6811 22.4854 15.5446 22.5523 15.4189C22.7771 15.3337 22.951 15.1725 23.1407 15.0352C23.1407 16.5917 23.1784 18.1491 23.1332 19.704C23.078 21.622 21.4037 23.2058 19.4585 23.2273C17.9104 23.2447 16.3615 23.2339 14.8125 23.2364H14.8133Z" fill="#212121"/>
<path d="M11.9994 18.5506C10.076 18.544 8.31723 18.042 6.81843 16.8096C5.4074 15.6492 4.61579 14.1456 4.39009 12.3484C4.29731 11.6082 4.29313 10.8654 4.43858 10.1302C4.7813 8.39994 6.54007 7.19241 8.30887 7.42896C8.95002 7.51497 9.5151 7.75565 10.0651 8.06415C11.0365 8.60919 12.0663 8.68032 13.1304 8.40738C13.5242 8.30648 13.8719 8.09888 14.2247 7.90618C15.2578 7.34211 16.342 7.21309 17.4379 7.65805C18.8038 8.21302 19.5302 9.26754 19.6397 10.7182C19.7835 12.6205 19.3497 14.3681 18.115 15.8717C16.984 17.2496 15.4978 18.0403 13.7557 18.3893C13.1764 18.5051 12.5904 18.5556 11.9994 18.5498V18.5506Z" fill="#424242"/>
<path d="M13.1606 5.30281C13.1581 5.938 12.6248 6.45492 11.9803 6.44665C11.35 6.43921 10.8334 5.91733 10.8359 5.29041C10.8385 4.65521 11.3718 4.13912 12.0171 4.14656C12.6482 4.15401 13.1631 4.67424 13.1606 5.30281Z" fill="#424242"/>
<path d="M21.2478 7.22252C21.145 7.30936 21.0196 7.23906 20.9093 7.27131C20.8976 7.25146 20.8859 7.23079 20.875 7.21094C20.9996 7.21507 21.1241 7.21838 21.2487 7.22252H21.2478Z" fill="#616161"/>
<path d="M12.0084 15.1956C11.3196 15.1906 10.7345 14.9417 10.253 14.4587C9.89689 14.1014 9.8902 13.577 10.2304 13.2329C10.5731 12.8864 11.0989 12.8839 11.4684 13.2271C11.8304 13.5638 12.1856 13.5605 12.5509 13.2189C12.9137 12.8798 13.4537 12.8773 13.7931 13.2131C14.1325 13.5505 14.13 14.0823 13.7806 14.4413C13.2974 14.9375 12.7056 15.1906 12.0084 15.1964V15.1956Z" fill="#FEFEFE"/>
<path d="M9.57792 11.1604C9.57792 11.3838 9.58377 11.6079 9.57625 11.8312C9.56036 12.2993 9.18587 12.6682 8.72528 12.6781C8.26135 12.6872 7.85091 12.3126 7.83754 11.842C7.82416 11.3788 7.82584 10.9156 7.83754 10.4525C7.84924 9.97608 8.24129 9.60886 8.71525 9.61134C9.18754 9.61299 9.56371 9.9827 9.57708 10.4665C9.58377 10.6981 9.57792 10.9297 9.57792 11.1613V11.1604Z" fill="#FEFEFE"/>
<path d="M16.1666 11.1298C16.1666 11.3614 16.1733 11.593 16.1649 11.8246C16.1482 12.2993 15.7595 12.6765 15.2922 12.6781C14.825 12.6798 14.4338 12.3035 14.4246 11.8254C14.4154 11.3705 14.4162 10.9148 14.4246 10.4599C14.4338 9.97938 14.8183 9.6105 15.2914 9.61133C15.7645 9.61216 16.1474 9.9802 16.1641 10.4591C16.1725 10.6824 16.1658 10.9065 16.1658 11.1298H16.1666Z" fill="#FEFEFE"/>
</g>
<defs>
<clipPath id="clip0_1_2156">
<rect width="24" height="24" fill="white"/>
</clipPath>
</defs>
</svg>
