<svg width="20" height="20" viewBox="0 0 20 20" fill="none" xmlns="http://www.w3.org/2000/svg">
<g clip-path="url(#clip0_1_2188)">
<path d="M10 10.9375C10.5178 10.9375 10.9375 10.5178 10.9375 10C10.9375 9.48223 10.5178 9.0625 10 9.0625C9.48223 9.0625 9.0625 9.48223 9.0625 10C9.0625 10.5178 9.48223 10.9375 10 10.9375Z" fill="#799c58"/>
<path d="M6.5625 10.9375C7.08027 10.9375 7.5 10.5178 7.5 10C7.5 9.48223 7.08027 9.0625 6.5625 9.0625C6.04473 9.0625 5.625 9.48223 5.625 10C5.625 10.5178 6.04473 10.9375 6.5625 10.9375Z" fill="#799c58"/>
<path d="M13.4375 10.9375C13.9553 10.9375 14.375 10.5178 14.375 10C14.375 9.48223 13.9553 9.0625 13.4375 9.0625C12.9197 9.0625 12.5 9.48223 12.5 10C12.5 10.5178 12.9197 10.9375 13.4375 10.9375Z" fill="#799c58"/>
<path d="M6.24431 16.493C7.81972 17.4048 9.67297 17.7125 11.4585 17.3588C13.2441 17.0051 14.84 16.0141 15.9489 14.5706C17.0578 13.1271 17.6038 11.3296 17.4852 9.51319C17.3667 7.69682 16.5916 5.98555 15.3045 4.69844C14.0174 3.41133 12.3061 2.63624 10.4897 2.51767C8.67333 2.3991 6.87582 2.94515 5.43231 4.054C3.9888 5.16286 2.99781 6.75884 2.64412 8.54439C2.29042 10.3299 2.59815 12.1832 3.50993 13.7586L2.53259 16.6766C2.49586 16.7867 2.49053 16.9049 2.5172 17.0178C2.54386 17.1308 2.60146 17.2341 2.68355 17.3162C2.76563 17.3983 2.86895 17.4559 2.98194 17.4826C3.09492 17.5092 3.21309 17.5039 3.32321 17.4672L6.24431 16.493Z" stroke="#799c58" stroke-width="2" stroke-linecap="round" stroke-linejoin="round"/>
</g>
<defs>
<clipPath id="clip0_1_2188">
<rect width="20" height="20" fill="white"/>
</clipPath>
</defs>
</svg>
